<?xml version="1.0" standalone="no"?>
<!DOCTYPE svg PUBLIC "-//W3C//DTD SVG 20010904//EN"
 "http://www.w3.org/TR/2001/REC-SVG-20010904/DTD/svg10.dtd">
<svg version="1.0" xmlns="http://www.w3.org/2000/svg"
 width="500.000000pt" height="148.000000pt" viewBox="0 0 500.000000 148.000000"
 preserveAspectRatio="xMidYMid meet">

<g transform="translate(0.000000,148.000000) scale(0.100000,-0.100000)"
fill="#000000" stroke="none">
<path d="M646 1469 c-387 -50 -662 -378 -644 -769 9 -192 75 -337 218 -480
199 -200 484 -265 753 -174 292 99 498 389 497 701 -1 147 -72 340 -171 461
-151 184 -418 291 -653 261z m360 -424 c2 -11 3 -157 2 -325 l-3 -305 -40 -3
-40 -2 -185 254 -185 253 -3 -253 -2 -254 -40 0 -40 0 0 325 0 325 43 0 42 0
180 -244 180 -243 3 236 c1 130 4 241 6 246 2 6 20 10 40 10 29 0 38 -5 42
-20z"/>
<path d="M1743 1054 c-95 -34 -176 -140 -191 -251 -29 -220 104 -383 312 -383
93 0 151 24 217 89 71 72 94 133 92 246 -1 100 -26 162 -91 228 -60 61 -127
87 -225 86 -40 0 -91 -7 -114 -15z m186 -54 c56 -16 106 -57 137 -113 26 -47
29 -61 29 -142 0 -73 -4 -98 -22 -131 -79 -148 -256 -179 -374 -64 -35 33 -51
59 -63 99 -64 217 95 408 293 351z"/>
<path d="M2505 1054 c-96 -35 -163 -114 -191 -224 -29 -116 -2 -228 78 -315
67 -74 132 -99 243 -93 124 7 208 59 263 163 25 45 27 60 27 160 0 100 -2 115
-27 161 -36 68 -108 130 -171 149 -63 19 -169 18 -222 -1z m189 -56 c62 -19
130 -91 150 -157 58 -199 -70 -380 -254 -358 -82 10 -141 52 -183 132 -18 32
-22 57 -22 130 0 81 3 95 29 143 57 102 164 144 280 110z"/>
<path d="M4831 1018 c1 -55 5 -50 11 15 2 20 0 37 -4 37 -4 0 -7 -24 -7 -52z"/>
<path d="M4900 1018 c0 -28 2 -49 4 -47 8 9 13 99 5 99 -5 0 -9 -23 -9 -52z"/>
<path d="M4976 1054 c-3 -8 -2 -12 4 -9 5 3 11 -14 13 -37 3 -41 4 -41 5 10 2
50 -9 69 -22 36z"/>
<path d="M3090 745 l0 -315 143 1 c158 1 204 11 280 66 54 38 104 131 113 213
13 116 -42 240 -133 298 -69 44 -111 52 -265 52 l-138 0 0 -315z m346 220 c70
-44 107 -109 112 -194 5 -87 -11 -143 -55 -192 -59 -65 -102 -82 -225 -87
l-108 -5 0 258 0 257 113 -3 c106 -4 117 -6 163 -34z"/>
<path d="M3770 745 l0 -315 185 0 185 0 0 30 0 29 -147 3 -148 3 -3 283 -2
282 -35 0 -35 0 0 -315z"/>
<path d="M4280 745 l0 -315 205 0 205 0 0 30 0 30 -170 0 -170 0 0 115 0 115
165 0 165 0 0 30 0 30 -162 2 -163 3 -3 108 -3 107 171 0 170 0 0 30 0 30
-205 0 -205 0 0 -315z"/>
<path d="M4921 1035 c-1 -20 26 -58 33 -46 4 6 3 11 -2 11 -5 0 -14 10 -20 23
-6 12 -11 18 -11 12z"/>
</g>
</svg>
