<?xml version="1.0" standalone="no"?>
<!DOCTYPE svg PUBLIC "-//W3C//DTD SVG 20010904//EN"
 "http://www.w3.org/TR/2001/REC-SVG-20010904/DTD/svg10.dtd">
<svg version="1.0" xmlns="http://www.w3.org/2000/svg"
 width="432.000000pt" height="112.000000pt" viewBox="0 0 432.000000 112.000000"
 preserveAspectRatio="xMidYMid meet">

<g transform="translate(0.000000,112.000000) scale(0.100000,-0.100000)"
fill="#000000" stroke="none">
<path d="M1373 1053 c-9 -3 -13 -37 -13 -119 0 -107 1 -114 20 -114 17 0 19 8
22 76 l3 75 54 -75 c34 -48 61 -76 72 -76 17 0 19 10 19 115 0 108 -1 115 -20
115 -18 0 -20 -7 -20 -77 l0 -77 -60 82 c-33 45 -62 82 -63 81 -1 0 -8 -3 -14
-6z"/>
<path d="M2493 1048 c-17 -5 -43 -23 -58 -40 -24 -28 -27 -39 -22 -82 6 -68
47 -106 113 -106 39 0 51 5 80 34 29 29 34 41 34 80 0 82 -68 134 -147 114z
m55 -34 c24 -7 52 -50 52 -82 0 -11 -10 -31 -21 -46 -28 -36 -83 -33 -112 6
-27 36 -17 92 21 113 32 17 30 17 60 9z"/>
<path d="M1620 935 l0 -115 85 0 c78 0 85 2 85 20 0 18 -7 20 -60 20 l-60 0 0
30 c0 29 1 30 50 30 43 0 50 3 50 20 0 17 -7 20 -50 20 -46 0 -50 2 -50 25 0
22 4 24 57 27 46 2 59 7 61 21 3 15 -6 17 -82 17 l-86 0 0 -115z"/>
<path d="M1850 1030 c0 -17 7 -20 40 -20 l40 0 0 -95 c0 -88 1 -95 20 -95 19
0 20 7 20 95 l0 95 40 0 c33 0 40 3 40 20 0 19 -7 20 -100 20 -93 0 -100 -1
-100 -20z"/>
<path d="M2092 1038 c3 -7 18 -59 33 -115 25 -90 31 -103 50 -103 18 0 24 11
42 78 l20 77 23 -78 c20 -67 26 -78 44 -75 16 2 25 21 48 98 33 113 34 130 10
130 -15 0 -23 -16 -38 -76 -20 -82 -21 -82 -49 19 -13 44 -21 57 -36 57 -11 0
-22 -6 -24 -12 -2 -7 -12 -42 -22 -78 l-19 -64 -20 74 c-17 64 -24 76 -44 78
-16 3 -21 0 -18 -10z"/>
<path d="M2700 935 c0 -108 1 -115 20 -115 17 0 20 7 20 45 0 43 1 45 29 45
24 0 35 -8 58 -45 15 -25 33 -45 40 -45 24 0 24 22 0 59 -24 36 -24 38 -6 49
13 9 19 24 19 51 0 57 -22 71 -108 71 l-72 0 0 -115z m135 45 c0 -23 -4 -25
-47 -28 -48 -3 -48 -3 -48 28 0 31 0 31 48 28 43 -3 47 -5 47 -28z"/>
<path d="M2960 935 c0 -107 1 -115 19 -115 16 0 20 8 23 46 l3 47 51 -47 c55
-49 69 -55 77 -31 4 9 -13 31 -46 59 l-52 45 49 44 c31 27 47 48 42 55 -12 19
-24 14 -70 -28 -24 -22 -46 -40 -50 -40 -3 0 -6 18 -6 40 0 33 -3 40 -20 40
-19 0 -20 -7 -20 -115z"/>
<path d="M3310 1005 c0 -33 -2 -35 -35 -35 -28 0 -35 -4 -35 -20 0 -16 7 -20
35 -20 33 0 35 -2 35 -35 0 -28 4 -35 20 -35 16 0 20 7 20 34 0 32 3 35 32 38
22 2 34 9 36 21 3 14 -4 17 -32 17 -34 0 -36 2 -36 35 0 28 -4 35 -20 35 -16
0 -20 -7 -20 -35z"/>
<path d="M1026 808 c45 -89 58 -146 57 -248 0 -116 -25 -194 -90 -293 -143
-215 -426 -291 -659 -177 -97 47 -159 100 -213 182 -64 94 -109 278 -71 285
12 3 18 -13 27 -68 21 -135 115 -276 229 -346 110 -66 281 -85 403 -44 160 55
268 169 316 336 27 92 17 230 -23 318 -17 37 -35 67 -40 67 -5 0 3 -24 19 -54
102 -203 26 -470 -171 -596 -133 -86 -321 -95 -463 -24 -70 36 -158 123 -196
194 -32 59 -67 192 -56 211 16 24 33 6 39 -42 32 -238 246 -401 486 -368 161
23 294 136 341 291 30 98 23 218 -17 302 -15 33 -30 54 -32 48 -2 -6 6 -28 17
-50 11 -21 25 -68 31 -104 30 -174 -65 -354 -227 -431 -64 -30 -75 -32 -178
-32 -109 0 -111 1 -182 39 -114 61 -182 150 -208 272 -14 70 -13 84 9 84 8 0
16 -18 20 -49 16 -119 120 -248 234 -291 77 -29 213 -25 284 9 75 36 134 94
170 169 31 62 33 74 33 167 0 91 -3 105 -28 150 -30 53 -30 40 -1 -35 11 -29
17 -72 17 -123 0 -66 -5 -87 -32 -142 -103 -208 -370 -262 -541 -108 -28 25
-62 67 -75 93 -23 46 -47 145 -37 155 15 15 30 1 36 -34 10 -64 42 -128 88
-174 68 -67 107 -82 218 -82 114 0 153 17 223 95 53 59 77 121 77 202 0 58
-32 158 -51 158 -4 0 2 -21 13 -47 45 -100 21 -226 -59 -308 -164 -169 -457
-71 -485 161 -2 20 2 30 13 32 12 2 19 -7 24 -35 15 -80 75 -158 147 -187 44
-19 125 -21 179 -5 89 27 159 126 159 226 0 52 -25 133 -41 133 -4 0 -1 -17 8
-37 22 -53 20 -140 -5 -190 -85 -165 -326 -164 -403 2 -10 22 -19 52 -19 68 0
27 0 27 70 27 40 0 70 4 70 10 0 6 -85 10 -235 10 l-235 0 0 -43 c0 -59 25
-149 61 -223 134 -272 476 -378 751 -232 107 57 206 173 250 293 30 83 36 241
13 321 -20 69 -64 164 -77 164 -4 0 3 -23 18 -52z"/>
<path d="M1380 658 c-11 -12 -20 -29 -20 -38 0 -30 30 -59 68 -66 72 -13 96
-44 49 -65 -25 -11 -77 3 -77 21 0 5 -9 10 -20 10 -26 0 -25 -24 2 -50 16 -14
35 -20 70 -20 57 0 88 24 88 68 0 27 -26 62 -46 62 -5 0 -26 5 -46 11 -62 16
-44 69 17 53 13 -3 26 -12 29 -20 6 -17 36 -7 36 12 0 43 -114 61 -150 22z"/>
<path d="M1620 565 l0 -115 85 0 c78 0 85 2 85 20 0 18 -7 20 -60 20 l-60 0 0
30 c0 29 1 30 50 30 43 0 50 3 50 20 0 17 -7 20 -50 20 -47 0 -50 2 -50 25 0
24 3 25 55 25 48 0 55 2 55 20 0 18 -7 20 -80 20 l-80 0 0 -115z"/>
<path d="M1887 660 c-57 -45 -57 -145 0 -189 38 -31 103 -28 142 5 17 14 31
32 31 40 0 21 -33 17 -53 -6 -22 -26 -78 -27 -100 -2 -23 26 -22 94 1 115 26
23 78 22 99 -3 19 -21 53 -27 53 -9 0 6 -13 24 -29 40 -37 36 -104 41 -144 9z"/>
<path d="M2130 605 c0 -116 28 -155 108 -155 33 0 45 6 66 31 23 28 26 39 26
115 0 77 -2 84 -20 84 -18 0 -20 -7 -20 -69 0 -96 -11 -121 -53 -121 -50 0
-57 14 -57 107 0 82 0 83 -25 83 -24 0 -25 -2 -25 -75z"/>
<path d="M2430 565 c0 -108 1 -115 20 -115 17 0 20 7 20 45 0 43 1 45 29 45
24 0 35 -8 58 -45 15 -25 33 -45 40 -45 23 0 24 21 3 56 -21 34 -22 36 -4 55
23 25 22 73 -1 99 -15 17 -31 20 -92 20 l-73 0 0 -115z m135 45 c0 -23 -4 -25
-47 -28 -48 -3 -48 -3 -48 28 0 31 0 31 48 28 43 -3 47 -5 47 -28z"/>
<path d="M2700 565 c0 -108 1 -115 20 -115 19 0 20 7 20 115 0 108 -1 115 -20
115 -19 0 -20 -7 -20 -115z"/>
<path d="M2810 660 c0 -17 7 -20 40 -20 l40 0 0 -95 c0 -88 1 -95 20 -95 19 0
20 7 20 95 l0 95 45 0 c38 0 45 3 45 20 0 19 -7 20 -105 20 -98 0 -105 -1
-105 -20z"/>
<path d="M3053 673 c-9 -3 2 -25 32 -68 38 -52 45 -70 45 -109 0 -39 3 -46 20
-46 17 0 20 7 20 48 0 40 7 56 45 106 24 32 42 63 39 67 -11 19 -32 7 -63 -36
-18 -25 -35 -45 -39 -45 -4 0 -20 21 -37 45 -29 44 -37 49 -62 38z"/>
<path d="M1350 290 c0 -17 7 -20 40 -20 l40 0 0 -95 c0 -95 0 -95 25 -95 25 0
25 0 25 95 l0 95 40 0 c33 0 40 3 40 20 0 19 -7 20 -105 20 -98 0 -105 -1
-105 -20z"/>
<path d="M1620 195 l0 -115 85 0 c78 0 85 2 85 20 0 18 -7 20 -60 20 l-60 0 0
30 c0 29 1 30 50 30 43 0 50 3 50 20 0 17 -7 20 -50 20 -47 0 -50 2 -50 25 0
24 3 25 55 25 48 0 55 2 55 20 0 18 -7 20 -80 20 l-80 0 0 -115z"/>
<path d="M1899 295 c-64 -34 -73 -132 -19 -187 39 -39 105 -40 149 -2 17 14
31 30 31 35 0 20 -31 20 -48 1 -26 -32 -63 -37 -95 -12 -22 17 -27 30 -27 64
0 51 22 76 68 76 29 0 62 -21 62 -40 0 -4 9 -6 20 -3 27 7 25 19 -9 54 -33 33
-87 39 -132 14z"/>
<path d="M2130 195 l0 -115 25 0 c23 0 25 3 25 50 l0 50 55 0 55 0 0 -50 c0
-43 3 -50 20 -50 19 0 20 7 20 115 0 108 -1 115 -20 115 -17 0 -20 -7 -20 -45
l0 -45 -55 0 -55 0 0 45 c0 41 -2 45 -25 45 l-25 0 0 -115z"/>
<path d="M2430 195 c0 -108 1 -115 20 -115 17 0 19 8 22 75 l3 76 58 -80 c78
-108 87 -104 87 45 0 107 -1 114 -20 114 -18 0 -20 -7 -20 -77 l0 -78 -56 78
c-36 49 -63 77 -75 77 -18 0 -19 -9 -19 -115z"/>
<path d="M2734 276 c-28 -28 -34 -42 -34 -75 0 -70 28 -107 97 -126 26 -7 81
15 106 43 27 29 33 92 13 130 -22 43 -54 62 -104 62 -37 0 -50 -6 -78 -34z
m129 -23 c40 -45 24 -124 -28 -137 -76 -19 -126 81 -69 138 21 21 77 20 97 -1z"/>
<path d="M3000 195 l0 -115 80 0 c73 0 80 2 80 20 0 18 -7 20 -60 20 l-60 0 0
95 c0 88 -1 95 -20 95 -19 0 -20 -7 -20 -115z"/>
<path d="M3242 297 c-36 -20 -55 -57 -55 -104 0 -143 202 -160 229 -19 17 94
-90 169 -174 123z m112 -49 c26 -36 21 -93 -10 -117 -34 -26 -54 -26 -88 0
-33 26 -37 88 -6 119 28 28 84 27 104 -2z"/>
<path d="M3539 295 c-64 -34 -73 -132 -19 -187 23 -23 37 -28 75 -28 25 0 59
7 75 15 27 14 30 20 30 65 l0 50 -50 0 c-43 0 -50 -3 -50 -20 0 -16 7 -20 31
-20 26 0 30 -3 27 -22 -5 -35 -61 -47 -96 -21 -33 24 -41 82 -17 119 19 29 78
33 107 7 17 -15 20 -15 34 -1 14 14 13 17 -14 37 -35 24 -94 27 -133 6z"/>
<path d="M3780 195 c0 -108 1 -115 20 -115 19 0 20 7 20 115 0 108 -1 115 -20
115 -19 0 -20 -7 -20 -115z"/>
<path d="M3890 195 l0 -115 85 0 c78 0 85 2 85 20 0 18 -7 20 -60 20 l-60 0 0
30 c0 29 1 30 50 30 43 0 50 3 50 20 0 17 -7 20 -50 20 -47 0 -50 2 -50 25 0
24 3 25 55 25 48 0 55 2 55 20 0 18 -7 20 -80 20 l-80 0 0 -115z"/>
<path d="M4155 285 c-14 -13 -25 -31 -25 -40 0 -27 44 -61 88 -69 46 -7 62
-27 42 -51 -18 -21 -56 -19 -80 5 -21 21 -50 27 -50 9 0 -59 110 -87 163 -41
21 18 23 75 2 92 -8 6 -36 17 -62 24 -36 9 -49 17 -51 33 -4 29 36 38 68 14
16 -11 32 -15 45 -11 18 6 18 8 -7 33 -37 37 -98 38 -133 2z"/>
</g>
</svg>
