<?xml version="1.0" standalone="no"?>
<!DOCTYPE svg PUBLIC "-//W3C//DTD SVG 20010904//EN"
 "http://www.w3.org/TR/2001/REC-SVG-20010904/DTD/svg10.dtd">
<svg version="1.0" xmlns="http://www.w3.org/2000/svg"
 width="2362.000000pt" height="708.000000pt" viewBox="0 0 2362.000000 708.000000"
 preserveAspectRatio="xMidYMid meet">

<g transform="translate(0.000000,708.000000) scale(0.100000,-0.100000)"
fill="#000000" stroke="none">
<path d="M3455 7024 c-22 -2 -89 -9 -150 -14 -446 -44 -949 -202 -1335 -421
-301 -170 -517 -335 -766 -583 -284 -283 -478 -549 -649 -886 -279 -552 -405
-1144 -374 -1759 44 -870 402 -1674 1019 -2291 571 -571 1302 -920 2106 -1005
180 -19 538 -19 719 0 578 61 1122 259 1595 579 258 175 577 467 764 701 811
1014 999 2380 491 3569 -327 766 -941 1407 -1690 1767 -359 172 -719 277
-1115 325 -119 14 -530 27 -615 18z m45 -1854 c975 -50 1839 -270 2481 -630
118 -67 169 -112 207 -185 23 -43 27 -62 27 -140 0 -84 -2 -95 -34 -153 -36
-66 -75 -103 -151 -143 -37 -20 -60 -24 -130 -24 -72 0 -93 4 -135 26 -28 14
-120 62 -205 106 -659 339 -1573 520 -2535 500 -519 -11 -958 -72 -1345 -187
-19 -5 -66 -10 -105 -10 -169 0 -303 128 -313 300 -5 92 20 166 77 232 58 65
121 94 316 143 541 138 1209 198 1845 165z m-146 -1200 c662 -37 1252 -174
1803 -420 189 -84 442 -223 490 -270 112 -108 110 -288 -4 -391 -58 -52 -117
-72 -200 -67 -62 3 -78 9 -173 65 -498 290 -1108 471 -1805 534 -191 17 -627
15 -825 -5 -268 -27 -533 -76 -758 -141 -100 -29 -130 -31 -199 -10 -189 56
-250 302 -111 444 43 44 84 63 213 100 471 132 1038 190 1569 161z m254 -1155
c473 -51 891 -168 1274 -357 322 -158 386 -206 409 -309 28 -125 -81 -259
-212 -259 -39 0 -85 19 -169 68 -287 172 -694 320 -1060 386 -259 47 -413 60
-730 60 -389 -1 -650 -28 -1060 -111 -208 -42 -267 -42 -329 1 -51 36 -91 112
-91 176 0 62 40 140 88 173 93 64 694 164 1142 191 135 8 601 -4 738 -19z"/>
<path d="M18199 5397 c-102 -43 -173 -110 -218 -206 -23 -49 -26 -69 -26 -156
0 -93 2 -105 32 -166 39 -80 111 -150 191 -187 50 -24 69 -27 162 -27 95 0
110 3 163 28 113 56 196 167 218 293 28 162 -64 336 -218 410 -48 23 -74 28
-153 31 -82 3 -103 0 -151 -20z"/>
<path d="M19773 5266 c-170 -33 -269 -82 -373 -186 -55 -55 -86 -95 -112 -150
-64 -131 -98 -298 -98 -482 l0 -88 -130 0 c-183 0 -170 21 -170 -276 0 -143 4
-243 10 -255 10 -17 23 -19 150 -19 l140 0 0 -934 c0 -779 2 -935 14 -945 9
-8 99 -11 307 -9 l294 3 3 943 2 942 253 -2 252 -3 382 -915 c210 -503 382
-921 383 -928 0 -23 -50 -112 -86 -152 -53 -58 -106 -80 -195 -80 -87 0 -169
19 -257 60 -43 20 -69 27 -79 21 -23 -12 -203 -411 -200 -441 3 -31 82 -76
213 -119 145 -49 257 -64 414 -58 227 10 352 59 486 192 92 92 145 169 214
310 26 55 267 666 534 1357 405 1047 485 1261 476 1278 -10 19 -20 20 -315 20
-280 0 -305 -1 -313 -17 -5 -10 -137 -383 -293 -830 -156 -446 -286 -809 -289
-806 -3 2 -147 374 -320 826 l-315 822 -474 3 -473 2 4 108 c3 92 8 114 31
159 35 67 84 101 170 115 79 13 196 0 311 -33 112 -32 106 -46 106 253 l0 249
-33 14 c-123 51 -473 80 -624 51z"/>
<path d="M9250 5153 c-248 -39 -430 -113 -585 -237 -199 -158 -316 -388 -332
-651 -18 -307 89 -559 308 -724 157 -119 378 -207 767 -305 432 -110 576 -177
636 -297 36 -73 37 -200 2 -274 -64 -137 -212 -210 -446 -222 -323 -16 -620
91 -919 331 -52 42 -98 76 -102 76 -15 0 -59 -48 -213 -233 -116 -137 -157
-193 -154 -209 6 -43 238 -216 418 -312 176 -93 392 -164 615 -202 141 -24
455 -25 585 -1 255 47 449 138 598 281 206 196 305 481 272 781 -35 314 -190
518 -514 675 -151 73 -269 113 -561 189 -356 92 -486 144 -576 228 -62 58 -84
114 -83 213 1 89 18 134 77 197 48 53 150 106 236 124 92 19 327 6 436 -24
160 -45 303 -114 478 -233 63 -43 83 -52 97 -44 25 13 320 429 320 450 0 23
-41 59 -155 135 -217 145 -466 240 -736 279 -98 15 -399 20 -469 9z"/>
<path d="M16536 4984 c-14 -13 -16 -57 -16 -325 l0 -309 -140 0 c-127 0 -140
-2 -150 -19 -15 -29 -14 -493 2 -509 8 -8 56 -12 149 -12 l138 0 4 -687 c4
-770 2 -748 78 -911 71 -154 204 -259 389 -309 95 -26 418 -26 510 0 96 27
215 75 244 98 l26 20 0 230 c0 140 -4 238 -10 250 -14 25 -37 24 -103 -6 -106
-49 -271 -69 -362 -44 -57 16 -104 55 -129 108 -21 45 -21 58 -24 649 l-3 602
310 0 c297 0 311 1 321 19 6 12 10 111 10 251 0 140 -4 239 -10 251 -10 18
-24 19 -320 19 l-310 0 0 313 c0 230 -3 316 -12 325 -9 9 -88 12 -294 12 -244
0 -285 -2 -298 -16z"/>
<path d="M12105 4385 c-86 -16 -180 -47 -255 -85 -75 -38 -203 -135 -263 -199
-26 -28 -50 -51 -52 -51 -3 0 -6 66 -7 148 l-3 147 -294 3 c-208 2 -298 -1
-307 -9 -12 -10 -14 -260 -14 -1560 0 -1394 2 -1549 16 -1563 13 -14 54 -16
290 -16 171 0 283 4 295 10 18 10 19 27 19 502 l0 492 43 -41 c213 -204 430
-293 717 -293 84 0 155 6 215 19 471 99 796 445 897 956 29 145 31 410 4 560
-93 524 -445 895 -930 980 -105 18 -274 18 -371 0z m209 -555 c114 -29 190
-73 278 -161 62 -62 85 -95 121 -170 70 -145 95 -297 77 -464 -34 -298 -188
-506 -440 -591 -42 -14 -85 -19 -180 -19 -153 0 -236 23 -347 97 -131 88 -226
224 -275 394 -32 113 -32 324 0 437 68 236 222 402 437 470 103 33 220 35 329
7z"/>
<path d="M14740 4395 c-8 -2 -49 -9 -90 -15 -161 -26 -380 -116 -517 -212
-411 -288 -612 -788 -518 -1286 46 -242 166 -465 344 -643 187 -186 409 -302
678 -356 132 -26 377 -23 510 5 397 85 711 315 891 652 201 375 190 874 -26
1235 -183 307 -481 518 -847 600 -64 15 -386 30 -425 20z m216 -554 c227 -27
422 -161 523 -363 63 -126 76 -189 76 -358 0 -124 -3 -156 -23 -220 -40 -126
-88 -207 -177 -296 -88 -89 -177 -140 -295 -170 -87 -23 -254 -22 -340 0 -272
73 -468 314 -499 613 -32 311 104 595 345 720 99 52 140 63 299 82 6 0 46 -3
91 -8z"/>
<path d="M22970 4345 c-233 -66 -352 -316 -251 -531 41 -87 91 -138 179 -182
70 -34 82 -37 161 -36 220 1 382 159 385 374 1 122 -50 232 -145 307 -86 68
-225 97 -329 68z m211 -50 c72 -25 138 -82 178 -155 35 -62 36 -69 36 -165 0
-90 -3 -105 -28 -153 -137 -260 -516 -244 -618 27 -17 45 -20 72 -17 141 3 75
8 94 39 150 39 71 105 130 174 154 54 19 181 20 236 1z"/>
<path d="M22910 3984 l0 -205 38 3 37 3 3 68 3 67 39 0 c36 0 41 -4 89 -70 49
-66 53 -70 91 -70 22 0 40 5 40 10 0 6 -20 38 -45 72 -25 34 -45 65 -45 68 0
4 12 13 26 20 35 19 54 60 54 115 0 38 -5 52 -28 75 -38 38 -88 50 -204 50
l-98 0 0 -206z m235 110 c10 -10 15 -29 13 -48 -4 -40 -35 -56 -110 -56 l-58
0 0 60 0 60 69 0 c51 0 74 -4 86 -16z"/>
<path d="M18030 4331 c-7 -13 -10 -404 -10 -1196 0 -792 3 -1183 10 -1196 10
-18 24 -19 305 -19 281 0 295 1 305 19 7 13 10 404 10 1196 0 792 -3 1183 -10
1196 -10 18 -24 19 -305 19 -281 0 -295 -1 -305 -19z"/>
</g>
</svg>
